<svg xmlns="http://www.w3.org/2000/svg" xmlns:xlink="http://www.w3.org/1999/xlink" width="3000" zoomAndPan="magnify" viewBox="0 0 2250 2250.000011" height="3000" preserveAspectRatio="xMidYMid meet" version="1.0"><defs><g/><clipPath id="855bb64606"><path d="M 0.5 0 L 2249.5 0 L 2249.5 2249 L 0.5 2249 Z M 0.5 0 " clip-rule="nonzero"/></clipPath><clipPath id="7271f3583a"><path d="M 1125 0 C 503.957031 0 0.5 503.457031 0.5 1124.5 C 0.5 1745.542969 503.957031 2249 1125 2249 C 1746.042969 2249 2249.5 1745.542969 2249.5 1124.5 C 2249.5 503.457031 1746.042969 0 1125 0 Z M 1125 0 " clip-rule="nonzero"/></clipPath><clipPath id="2a85a95936"><path d="M 0.5 0 L 2249.5 0 L 2249.5 2249 L 0.5 2249 Z M 0.5 0 " clip-rule="nonzero"/></clipPath><clipPath id="efa75d91b4"><path d="M 1125 0 C 503.957031 0 0.5 503.457031 0.5 1124.5 C 0.5 1745.542969 503.957031 2249 1125 2249 C 1746.042969 2249 2249.5 1745.542969 2249.5 1124.5 C 2249.5 503.457031 1746.042969 0 1125 0 Z M 1125 0 " clip-rule="nonzero"/></clipPath><clipPath id="516509542f"><rect x="0" width="2250" y="0" height="2249"/></clipPath><clipPath id="a06792ad00"><rect x="0" width="427" y="0" height="1080"/></clipPath><clipPath id="286fe7881f"><rect x="0" width="419" y="0" height="1080"/></clipPath><clipPath id="90cd36aa33"><rect x="0" width="1321" y="0" height="1264"/></clipPath></defs><g clip-path="url(#855bb64606)"><g clip-path="url(#7271f3583a)"><g transform="matrix(1, 0, 0, 1, 0.000000000000000056, -0.00000000000012564)"><g clip-path="url(#516509542f)"><g clip-path="url(#2a85a95936)"><g clip-path="url(#efa75d91b4)"><path fill="#38b6ff" d="M 0.5 0 L 2249.5 0 L 2249.5 2249 L 0.5 2249 Z M 0.5 0 " fill-opacity="1" fill-rule="nonzero"/></g></g></g></g></g></g><g transform="matrix(1, 0, 0, 1, 89, 584)"><g clip-path="url(#a06792ad00)"><g fill="#ffffff" fill-opacity="1"><g transform="translate(0.65074, 809.839385)"><g><path d="M 200.421875 -99.4375 L 43.9375 -269.8125 L 200.421875 -440.171875 L 366.171875 -440.171875 L 208.90625 -269.8125 L 366.171875 -99.4375 Z M 200.421875 -99.4375 "/></g></g></g></g></g><g transform="matrix(1, 0, 0, 1, 1788, 584)"><g clip-path="url(#286fe7881f)"><g fill="#ffffff" fill-opacity="1"><g transform="translate(0.644819, 809.839385)"><g><path d="M 48.5625 -440.171875 L 214.296875 -440.171875 L 370.796875 -269.8125 L 214.296875 -99.4375 L 48.5625 -99.4375 L 205.828125 -269.8125 Z M 48.5625 -440.171875 "/></g></g></g></g></g><g transform="matrix(1, 0, 0, 1, 491, 492)"><g clip-path="url(#90cd36aa33)"><g fill="#ffffff" fill-opacity="1"><g transform="translate(0.744734, 947.422398)"><g><path d="M 449.765625 -111.765625 L 213.625 -111.765625 L 175.765625 0 L 14.421875 0 L 243.359375 -632.734375 L 421.828125 -632.734375 L 650.75 0 L 487.625 0 Z M 410.109375 -230.75 L 331.6875 -462.390625 L 254.171875 -230.75 Z M 410.109375 -230.75 "/></g></g></g><g fill="#ffffff" fill-opacity="1"><g transform="translate(665.030521, 947.422398)"><g><path d="M 292.9375 -632.734375 C 359.632812 -632.734375 417.914062 -619.507812 467.78125 -593.0625 C 517.65625 -566.625 556.257812 -529.519531 583.59375 -481.75 C 610.9375 -433.988281 624.609375 -378.863281 624.609375 -316.375 C 624.609375 -254.476562 610.9375 -199.492188 583.59375 -151.421875 C 556.257812 -103.347656 517.503906 -66.09375 467.328125 -39.65625 C 417.160156 -13.21875 359.03125 0 292.9375 0 L 55.890625 0 L 55.890625 -632.734375 Z M 283.015625 -133.40625 C 341.304688 -133.40625 386.675781 -149.328125 419.125 -181.171875 C 451.570312 -213.015625 467.796875 -258.082031 467.796875 -316.375 C 467.796875 -374.65625 451.570312 -420.019531 419.125 -452.46875 C 386.675781 -484.914062 341.304688 -501.140625 283.015625 -501.140625 L 210.015625 -501.140625 L 210.015625 -133.40625 Z M 283.015625 -133.40625 "/></g></g></g></g></g></svg>